<svg width="219" height="82" viewBox="0 0 219 82" fill="none" xmlns="http://www.w3.org/2000/svg">
<path d="M0.5 16C0.5 7.43959 7.43959 0.5 16 0.5H203C211.56 0.5 218.5 7.43959 218.5 16V66C218.5 74.5604 211.56 81.5 203 81.5H16C7.43959 81.5 0.5 74.5604 0.5 66V16Z" fill="#EFD372"/>
<path d="M191 58C201.493 58 210 50.3888 210 41C210 31.6112 201.493 24 191 24C180.507 24 172 31.6112 172 41C172 50.3888 180.507 58 191 58Z" fill="#335B6B"/>
<path d="M197.038 40.5H183M191.077 35L198 40.5L191.077 46V35Z" stroke="white" stroke-linecap="round" stroke-linejoin="round"/>
<path d="M0.5 16C0.5 7.43959 7.43959 0.5 16 0.5H203C211.56 0.5 218.5 7.43959 218.5 16V66C218.5 74.5604 211.56 81.5 203 81.5H16C7.43959 81.5 0.5 74.5604 0.5 66V16Z" stroke="#EFD372"/>
</svg>
